<svg width="60" height="61" viewBox="0 0 60 61" fill="none" xmlns="http://www.w3.org/2000/svg">
<path fill-rule="evenodd" clip-rule="evenodd" d="M30 49.881C33.9899 49.881 37.0269 46.7411 37.0269 43.1244H47.8375C47.8375 52.9344 39.7352 60.6917 30 60.6917V49.881Z" fill="#FB822A"/>
<path fill-rule="evenodd" clip-rule="evenodd" d="M49.1883 30.9634C49.1883 27.2353 46.1598 24.2067 42.4316 24.2067V13.3961C52.1303 13.3961 59.9989 21.2647 59.9989 30.9634H49.1883Z" fill="url(#paint0_linear)"/>
<path fill-rule="evenodd" clip-rule="evenodd" d="M10.8106 30.6935C10.8106 34.5708 13.9602 37.7204 17.8375 37.7204V48.531C7.98966 48.531 0 40.5413 0 30.6935H10.8106Z" fill="url(#paint1_linear)"/>
<path fill-rule="evenodd" clip-rule="evenodd" d="M30.271 11.5029C26.6542 11.5029 23.5143 14.5399 23.5143 18.5298H12.7037C12.7037 8.79455 20.4609 0.692261 30.271 0.692261V11.5029Z" fill="url(#paint2_linear)"/>
<path fill-rule="evenodd" clip-rule="evenodd" d="M37.0266 18.3947C37.0266 14.5919 33.9376 11.5029 30.1349 11.5029V0.692261C39.9081 0.692261 47.8372 8.6214 47.8372 18.3947C47.8372 28.1679 39.9081 36.0971 30.1349 36.0971C26.3321 36.0971 23.2431 39.1861 23.2431 42.9888C23.2431 46.7916 26.3321 49.8806 30.1349 49.8806V60.6913C20.3616 60.6913 12.4325 52.7621 12.4325 42.9888C12.4325 33.2156 20.3616 25.2864 30.1349 25.2864C33.9376 25.2864 37.0266 22.1974 37.0266 18.3947Z" fill="url(#paint3_linear)"/>
<path fill-rule="evenodd" clip-rule="evenodd" d="M17.7024 23.9359C13.8996 23.9359 10.8106 27.0249 10.8106 30.8276H0C0 21.0544 7.92912 13.1252 17.7024 13.1252C27.4756 13.1252 35.4047 21.0544 35.4047 30.8276C35.4047 34.6304 38.4938 37.7194 42.2965 37.7194C46.0992 37.7194 49.1882 34.6304 49.1882 30.8276H59.9988C59.9988 40.6009 52.0697 48.5301 42.2965 48.5301C32.5232 48.5301 24.5941 40.6009 24.5941 30.8276C24.5941 27.0249 21.5051 23.9359 17.7024 23.9359Z" fill="url(#paint4_linear)"/>
<defs>
<linearGradient id="paint0_linear" x1="48.5126" y1="18.8014" x2="48.5126" y2="30.9634" gradientUnits="userSpaceOnUse">
<stop stop-color="#E11B7B"/>
<stop offset="1" stop-color="#EE4455"/>
</linearGradient>
<linearGradient id="paint1_linear" x1="11.6214" y1="30.6935" x2="11.6214" y2="43.1257" gradientUnits="userSpaceOnUse">
<stop stop-color="#FB822A"/>
<stop offset="1" stop-color="#FB822A"/>
</linearGradient>
<linearGradient id="paint2_linear" x1="15.9469" y1="15.692" x2="30.271" y2="7.85433" gradientUnits="userSpaceOnUse">
<stop stop-color="#E11B7B"/>
<stop offset="1" stop-color="#EF4A4E"/>
</linearGradient>
<linearGradient id="paint3_linear" x1="30.27" y1="6.09758" x2="51.0535" y2="17.5419" gradientUnits="userSpaceOnUse">
<stop stop-color="#ED4454"/>
<stop offset="1" stop-color="#FF8212"/>
</linearGradient>
<linearGradient id="paint4_linear" x1="0" y1="13.1252" x2="63.6117" y2="21.6869" gradientUnits="userSpaceOnUse">
<stop stop-color="#FF8212"/>
<stop offset="1" stop-color="#ED4454"/>
</linearGradient>
</defs>
</svg>
